<?xml version="1.0" standalone="no"?>
<!DOCTYPE svg PUBLIC "-//W3C//DTD SVG 20010904//EN"
 "http://www.w3.org/TR/2001/REC-SVG-20010904/DTD/svg10.dtd">
<svg version="1.0" xmlns="http://www.w3.org/2000/svg"
 width="400.000000pt" height="400.000000pt" viewBox="0 0 400.000000 400.000000"
 preserveAspectRatio="xMidYMid meet">
<metadata>
Created by potrace 1.11, written by Peter Selinger 2001-2013
</metadata>
<g transform="translate(0.000000,400.000000) scale(0.100000,-0.100000)"
fill="#000000" stroke="none">
<path d="M856 3928 c-3 -40 -11 -179 -16 -308 -13 -296 -27 -534 -45 -772 -8
-103 -15 -208 -15 -235 0 -83 -12 -85 -74 -18 -31 33 -55 67 -54 75 4 27 -21
58 -56 70 -35 11 -201 4 -221 -10 -5 -3 -21 -7 -34 -8 -25 -1 -76 -33 -130
-82 -18 -17 -35 -30 -36 -28 -2 2 5 100 15 218 10 118 24 282 31 363 13 162 7
153 75 126 43 -17 101 -4 137 32 27 28 29 34 25 86 -4 49 -9 60 -40 87 -19 17
-75 66 -124 110 -49 43 -118 106 -154 140 -36 33 -82 77 -103 95 l-37 35 0
-1952 0 -1952 1562 0 1561 0 -6 163 c-28 668 -39 977 -52 1422 -25 868 -54
1888 -61 2158 l-6 257 -1068 0 -1068 0 -6 -72z m1622 -403 l-5 -55 28 32 c16
18 28 28 29 21 0 -6 -11 -25 -25 -41 -14 -17 -25 -32 -25 -36 0 -3 18 -10 40
-16 45 -12 56 -34 13 -24 -16 4 -36 11 -45 16 -14 7 -18 4 -18 -12 0 -11 -5
-20 -10 -20 -7 0 -10 33 -9 88 2 92 4 102 21 102 7 0 9 -20 6 -55z m-83 -45
c0 -95 -9 -117 -20 -50 -7 42 2 140 13 140 4 0 7 -41 7 -90z m-480 -30 c0 -55
-3 -100 -6 -100 -9 0 -56 54 -78 90 l-21 35 0 -68 c0 -38 -4 -66 -8 -63 -8 5
-4 166 3 174 2 2 15 -18 29 -45 14 -26 34 -58 44 -71 18 -24 18 -23 16 44 -3
54 7 104 19 104 1 0 2 -45 2 -100z m750 80 c7 -22 -20 -66 -47 -75 -10 -4 -18
-10 -18 -15 0 -15 28 -19 47 -5 24 19 39 19 23 -1 -58 -69 -118 -8 -75 76 22
42 59 53 70 20z m-635 -17 c44 -40 51 -93 17 -127 -23 -23 -91 -45 -104 -33
-3 3 -2 47 2 96 7 87 8 91 31 91 13 0 37 -12 54 -27z m-283 -6 c-26 -8 -27
-12 -27 -78 0 -67 1 -69 25 -69 45 0 26 -15 -32 -27 -34 -6 -62 -7 -68 -2 -5
5 -14 39 -20 76 l-11 67 -22 -37 c-25 -44 -34 -45 -61 -11 l-21 27 0 -67 c0
-38 -4 -65 -9 -62 -10 6 -8 162 2 172 3 3 15 -12 27 -35 11 -23 24 -41 28 -41
5 0 18 20 30 45 12 25 26 45 31 45 5 0 12 -33 16 -74 8 -86 13 -97 42 -90 22
6 33 44 33 117 0 31 -3 37 -22 37 -32 0 -14 12 29 20 47 8 67 0 30 -13z m511
-9 c18 -18 15 -33 -3 -18 -11 9 -19 10 -26 3 -8 -8 -4 -16 14 -28 32 -20 40
-41 27 -66 -18 -33 -70 -18 -70 20 0 11 3 10 14 -4 8 -11 19 -16 30 -12 23 9
20 22 -9 41 -36 24 -33 70 6 75 3 1 10 -4 17 -11z m176 -50 c7 -61 -7 -83 -17
-25 -4 29 1 92 8 85 2 -2 6 -29 9 -60z m-250 -20 c7 -62 -8 -81 -18 -24 -6 29
1 93 9 84 1 -2 5 -29 9 -60z m-964 3 l0 -45 21 23 c11 12 26 20 32 18 15 -5
22 -117 8 -117 -7 0 -8 16 -5 44 4 26 2 46 -4 50 -16 10 -52 -43 -52 -75 0
-16 -5 -29 -11 -29 -6 0 -9 30 -8 80 1 44 0 82 -2 84 -2 2 -16 2 -31 -1 -28
-5 -28 -6 -28 -84 0 -53 -4 -79 -11 -79 -9 0 -10 23 -6 80 6 78 6 80 -16 81
-33 2 42 17 81 16 31 -1 32 -2 32 -46z m168 -12 c2 -9 -11 -30 -28 -47 -16
-17 -30 -33 -30 -36 0 -11 36 -6 49 7 11 10 13 9 9 -2 -7 -25 -36 -37 -55 -25
-21 13 -27 36 -19 69 12 49 66 73 74 34z m812 -204 c-21 -103 -22 -113 -3
-111 27 2 33 16 33 82 0 48 4 63 16 68 9 4 18 5 19 4 4 -4 -12 -112 -19 -135
-7 -20 13 -23 67 -8 32 8 37 26 6 22 -29 -3 -34 15 -11 43 13 17 24 21 40 16
27 -9 28 -35 5 -88 -16 -36 -20 -39 -48 -34 -65 12 -74 13 -69 4 3 -5 13 -7
23 -3 13 5 14 4 3 -7 -10 -10 -17 -10 -31 -1 -14 9 -22 9 -31 0 -10 -9 -12 -9
-7 4 3 10 -1 16 -9 16 -8 0 -13 -6 -10 -14 3 -7 0 -13 -6 -13 -7 0 -9 15 -4
46 3 26 6 68 6 95 0 37 4 48 18 51 23 6 22 8 12 -37z m-314 13 c-3 -7 -7 -28
-10 -45 -5 -29 -3 -33 17 -33 50 0 63 -52 22 -90 -22 -20 -27 -21 -54 -10 -24
9 -29 16 -22 29 5 9 11 44 15 79 5 47 4 62 -6 63 -7 0 -4 4 7 9 28 12 35 12
31 -2z m151 -74 c3 -8 -1 -23 -10 -31 -13 -13 -19 -14 -31 -3 -14 11 -16 9
-16 -13 0 -14 8 -30 18 -36 15 -8 14 -11 -12 -21 -30 -11 -50 -5 -27 9 9 6 11
21 6 54 -6 39 -4 46 12 50 36 9 54 7 60 -9z m109 1 c10 -24 -16 -47 -48 -43
-22 4 -28 1 -28 -13 0 -10 9 -23 19 -28 16 -9 18 -8 14 9 -4 15 0 20 16 20 24
0 28 -22 7 -40 -12 -9 -21 -9 -43 2 -34 16 -44 66 -18 92 21 20 74 21 81 1z
m-334 -20 c16 -35 -1 -89 -30 -93 -15 -2 -22 2 -22 12 0 9 9 16 21 16 17 0 19
5 15 31 -6 37 -11 43 -31 36 -8 -4 -15 -18 -15 -32 0 -30 -16 -65 -30 -65 -6
0 -10 7 -10 15 0 8 5 15 11 15 6 0 9 12 7 28 -2 16 -9 27 -18 27 -11 0 -15
-12 -15 -47 0 -33 -4 -48 -15 -51 -12 -3 -15 7 -13 57 l1 61 40 0 c22 0 44 3
48 8 15 15 45 6 56 -18z m-246 -39 c-8 -58 3 -78 31 -55 11 10 14 25 10 55 -3
33 -1 43 12 47 13 3 16 -6 16 -58 l0 -61 -35 -1 c-48 -2 -60 11 -58 66 2 52 5
61 20 61 7 0 8 -19 4 -54z m-251 13 c9 -28 -22 -96 -46 -102 -37 -10 -41 29
-4 43 27 10 32 24 13 36 -7 4 -8 3 -4 -4 4 -7 1 -12 -8 -12 -9 0 -16 7 -16 15
0 8 9 15 20 15 11 0 20 5 20 11 0 5 -4 7 -10 4 -5 -3 -10 -1 -10 4 0 20 39 11
45 -10z m46 9 c1 -7 1 -33 -1 -58 -2 -44 -2 -45 17 -27 11 9 25 17 32 17 8 0
11 11 9 27 -2 19 -10 29 -28 34 -23 6 -23 7 -6 14 10 5 26 4 35 -2 39 -24 14
-114 -32 -111 -12 0 -27 -1 -33 -3 -14 -5 -14 -5 -14 66 0 30 5 55 10 55 6 0
11 -6 11 -12z m1069 -28 c0 -5 -5 -10 -11 -10 -5 0 -7 5 -4 10 3 6 8 10 11 10
2 0 4 -4 4 -10z m50 0 c0 -5 -7 -10 -16 -10 -8 0 -12 5 -9 10 3 6 10 10 16 10
5 0 9 -4 9 -10z m-90 -10 c0 -5 -4 -10 -10 -10 -5 0 -10 5 -10 10 0 6 5 10 10
10 6 0 10 -4 10 -10z m174 -139 c22 -24 18 -75 -6 -79 -14 -3 -18 3 -18 27 0
36 -16 49 -37 28 -23 -22 -9 -49 42 -79 68 -41 56 -78 -25 -78 -43 0 -70 13
-70 32 0 5 23 6 50 2 28 -4 50 -4 50 0 0 3 -18 17 -40 31 -57 36 -69 65 -41
104 26 36 68 42 95 12z m-252 -41 l-4 -45 36 40 c19 22 35 43 36 48 0 11 40 8
40 -4 0 -6 -13 -22 -30 -36 -17 -13 -30 -35 -30 -47 0 -31 27 -66 51 -66 12 0
19 -5 17 -12 -8 -24 -38 -19 -69 11 -36 37 -49 33 -49 -15 0 -24 -4 -34 -12
-32 -20 7 -31 74 -23 144 5 53 10 65 23 62 14 -3 16 -13 14 -48z m-103 29 c17
-6 31 -15 31 -19 0 -5 2 -15 6 -23 3 -8 -6 -28 -20 -44 l-26 -31 25 -16 c14
-9 25 -23 25 -31 0 -19 0 -19 -51 10 -57 32 -62 31 -54 -6 6 -26 4 -30 -12
-27 -10 2 -19 14 -21 28 -2 14 -9 31 -14 38 -7 8 -7 16 2 26 6 8 10 30 9 48
-2 18 0 39 5 46 9 15 53 16 95 1z m-164 -19 c10 -11 20 -41 23 -69 4 -46 2
-53 -26 -81 -78 -78 -164 5 -118 114 24 56 86 75 121 36z m-159 -36 c7 -51 -7
-114 -32 -135 -13 -10 -20 -10 -36 0 -17 10 -22 9 -33 -6 -24 -32 -49 -5 -59
65 -11 75 -3 112 24 112 23 0 24 -4 10 -31 -10 -18 -3 -125 8 -115 2 3 10 31
16 63 17 83 39 79 46 -7 6 -64 6 -65 19 -35 8 17 14 54 14 83 0 64 13 68 23 6z
m-334 -71 c-3 -70 -8 -93 -18 -93 -19 0 -20 186 -1 193 22 8 24 -6 19 -100z
m-389 42 c8 -18 -11 -31 -25 -17 -11 11 -3 32 12 32 4 0 10 -7 13 -15z m53
-12 c-4 -9 -1 -20 6 -24 9 -6 9 -11 1 -21 -7 -7 -13 -30 -15 -51 -4 -52 -22
-51 -26 1 -4 54 -20 55 -24 0 -2 -23 -9 -43 -15 -46 -10 -3 -13 13 -13 58 0
58 1 61 23 58 16 -2 23 3 25 20 2 14 10 22 24 22 15 0 18 -4 14 -17z m379 -41
c0 -22 4 -44 8 -48 12 -12 27 17 27 54 0 22 5 32 15 32 14 0 15 -11 9 -77 -4
-43 -11 -84 -17 -90 -17 -23 -77 -13 -77 13 0 10 8 12 30 8 23 -5 30 -3 30 10
0 9 -8 16 -20 16 -33 0 -52 66 -34 115 11 29 29 9 29 -33z m-226 12 c12 -15
21 -34 21 -44 0 -25 -38 -70 -60 -70 -27 0 -53 43 -45 72 11 36 34 68 50 68 7
0 23 -12 34 -26z m121 0 c16 -40 13 -94 -5 -94 -11 0 -15 12 -15 45 0 25 -4
45 -10 45 -15 0 -30 -35 -30 -70 0 -52 -25 -30 -28 25 -4 65 1 75 43 75 29 0
37 -5 45 -26z m420 -169 c0 -26 -14 -33 -25 -15 -9 14 1 40 15 40 5 0 10 -11
10 -25z m-170 -10 c0 -25 -23 -35 -35 -15 -10 16 2 40 20 40 9 0 15 -9 15 -25z
m90 -34 c0 -30 5 -52 13 -55 10 -5 10 -7 0 -12 -8 -3 -13 -24 -12 -52 1 -26 3
-39 6 -29 5 20 33 23 33 4 0 -33 -55 -51 -67 -22 -3 9 -6 32 -7 53 0 20 -5 40
-10 44 -6 4 -5 12 1 20 6 7 10 32 8 56 -3 36 -1 42 16 42 16 0 19 -7 19 -49z
m-587 -15 c-5 -48 -3 -54 16 -59 24 -6 41 -44 41 -93 0 -31 -3 -35 -22 -32
-20 3 -22 8 -20 49 2 26 -1 50 -7 54 -7 4 -11 -12 -11 -49 0 -55 -1 -56 -28
-56 l-28 0 8 63 c4 34 7 85 7 112 -1 68 -2 65 25 65 24 0 24 -2 19 -54z m1405
-11 c9 -9 30 -114 24 -120 -3 -3 -15 -5 -26 -5 -18 0 -21 6 -21 45 0 24 -6 50
-14 57 -11 11 -13 4 -8 -44 6 -58 5 -58 -21 -58 -26 0 -27 2 -24 50 2 28 -1
56 -7 64 -6 7 -8 16 -4 20 8 8 91 1 101 -9z m-401 -17 c25 -23 30 -66 13 -99
-13 -24 -75 -27 -84 -3 -10 27 -7 64 9 94 18 36 31 37 62 8z m271 -5 c-2 -20
-9 -29 -25 -31 -23 -3 -28 -17 -17 -46 9 -24 33 -19 40 9 6 26 24 35 24 12 0
-17 -36 -50 -57 -53 -34 -5 -53 15 -53 57 0 59 14 79 56 79 33 0 35 -2 32 -27z
m-514 8 c4 -5 3 -17 0 -26 -6 -16 -8 -16 -16 -1 -5 9 -13 14 -19 11 -16 -11
-10 -24 19 -37 18 -9 27 -21 27 -38 0 -49 -86 -60 -93 -11 -4 27 15 28 23 0 4
-11 14 -19 23 -17 26 5 25 27 -2 39 -35 16 -37 65 -3 79 29 12 35 12 41 1z
m395 -5 c5 -6 12 -25 15 -43 6 -25 3 -36 -13 -52 -12 -12 -28 -21 -37 -21 -13
0 -15 -11 -13 -57 3 -55 2 -58 -22 -61 l-25 -3 -2 113 c-2 62 -7 115 -12 116
-6 2 -10 8 -10 13 0 12 109 8 119 -5z m-649 -52 c0 -25 5 -54 10 -65 9 -16 7
-19 -10 -20 -11 -1 -25 -2 -31 -3 -7 -1 -12 24 -14 67 -2 64 -1 67 21 67 22 0
24 -4 24 -46z m-224 24 c3 -5 9 -34 13 -64 7 -50 6 -54 -13 -54 -12 0 -37 -3
-56 -6 l-35 -6 0 71 0 70 43 -1 c23 0 45 -5 48 -10z m-759 -20 c-3 -8 -6 -5
-6 6 -1 11 2 17 5 13 3 -3 4 -12 1 -19z m366 -13 c-3 -12 0 -26 6 -29 7 -5 11
4 11 22 0 17 6 32 14 35 21 8 28 -4 13 -22 -8 -9 -20 -37 -27 -63 -15 -56 -26
-61 -35 -16 l-7 32 -18 -35 c-13 -23 -20 -29 -23 -19 -6 18 -27 107 -27 114 0
7 51 12 76 8 16 -3 20 -9 17 -27z m277 10 c0 -18 -7 -26 -25 -31 -18 -4 -25
-13 -25 -30 0 -29 26 -32 35 -4 3 11 13 20 21 20 12 0 11 -6 -6 -30 -37 -51
-90 -38 -90 22 0 58 14 78 55 78 31 0 35 -3 35 -25z m-1226 -212 c20 -9 37
-26 40 -39 4 -13 17 -31 31 -40 24 -15 34 -44 17 -44 -5 0 -33 -18 -62 -40
-62 -46 -93 -52 -86 -17 3 12 8 61 11 110 4 48 8 87 11 87 2 0 19 -7 38 -17z
m561 -260 c-8 -103 -15 -134 -26 -127 -5 3 -9 20 -9 39 0 22 -9 45 -26 65
l-27 31 34 35 c53 54 62 47 54 -43z m393 -255 c-6 -18 -28 -21 -28 -4 0 9 7
16 16 16 9 0 14 -5 12 -12z m1645 -156 c26 -23 34 -41 42 -89 4 -30 2 -45 -10
-57 -28 -27 -53 -4 -57 51 -4 59 -25 75 -68 51 -17 -9 -30 -13 -30 -8 0 12 34
30 56 30 28 0 54 -31 54 -65 0 -29 15 -55 31 -55 14 0 17 30 7 67 -14 54 -44
83 -85 83 -22 0 -32 4 -27 11 9 15 63 3 87 -19z m-118 6 c-24 -13 -38 -34 -46
-68 -7 -25 -7 -25 -8 3 -1 29 37 77 61 77 7 0 4 -6 -7 -12z m-8 -155 c-2 -16
-4 -5 -4 22 0 28 2 40 4 28 2 -13 2 -35 0 -50z m-50 0 c-3 -10 -5 -2 -5 17 0
19 2 27 5 18 2 -10 2 -26 0 -35z m40 -90 c-3 -10 -5 -2 -5 17 0 19 2 27 5 18
2 -10 2 -26 0 -35z m-1954 -121 c-7 -40 -12 -45 -56 -64 -26 -11 -50 -18 -53
-15 -4 3 8 27 25 52 17 25 31 51 31 57 0 7 12 30 28 52 l27 40 3 -40 c1 -21
-1 -58 -5 -82z m1944 6 c-2 -18 -4 -4 -4 32 0 36 2 50 4 33 2 -18 2 -48 0 -65z
m-3 -84 c3 -10 15 -30 25 -43 l18 -24 29 26 c16 15 33 27 38 27 5 0 24 11 42
25 18 14 35 22 37 18 4 -7 -42 -294 -56 -348 -10 -40 -7 28 4 90 29 170 38
229 35 232 -1 2 -33 -17 -69 -41 -37 -25 -67 -42 -67 -38 0 4 -16 25 -35 47
-19 22 -35 48 -35 57 0 10 -4 18 -10 18 -5 0 -10 6 -10 12 0 17 46 -33 54 -58z
m-253 6 c28 -22 46 -40 41 -40 -6 0 -17 6 -24 13 -7 7 -28 23 -47 36 l-33 24
7 -33 c4 -18 8 -38 9 -44 1 -6 5 -24 9 -41 9 -44 20 -171 13 -165 -7 8 -26
110 -35 187 0 6 -21 19 -46 29 -25 9 -45 20 -45 25 0 10 27 1 55 -18 30 -20
34 -16 28 27 -4 27 -2 40 6 40 6 0 34 -18 62 -40z m-161 1 c0 -6 -4 -13 -10
-16 -5 -3 -10 1 -10 9 0 9 5 16 10 16 6 0 10 -4 10 -9z m707 -51 c-6 -23 -1
-24 33 -5 14 8 28 14 32 15 5 0 -27 -127 -52 -200 -8 -24 -8 -24 -9 -2 -1 12
6 39 14 59 8 19 15 45 15 57 0 20 -1 20 -21 -4 l-20 -25 12 25 c6 14 18 33 27
43 14 15 14 17 0 17 -9 0 -20 -6 -26 -13 -10 -11 -30 -80 -37 -127 -1 -8 -5
-22 -8 -30 -4 -8 -9 -28 -11 -44 -3 -16 -10 -34 -17 -40 -8 -8 -10 -6 -6 9 3
11 20 80 37 153 18 72 35 132 37 132 3 0 3 -9 0 -20z m-462 -18 c-3 -3 -11 0
-18 7 -9 10 -8 11 6 5 10 -3 15 -9 12 -12z m204 -86 c-9 -8 -10 -7 -5 7 3 10
7 24 7 30 1 7 3 4 6 -7 3 -10 -1 -23 -8 -30z m-420 -16 c0 -9 -4 -8 -9 5 -5
11 -9 27 -9 35 0 9 4 8 9 -5 5 -11 9 -27 9 -35z m411 -207 c-7 -98 -19 -239
-26 -313 l-13 -135 5 125 c3 69 12 199 19 290 8 91 15 178 15 194 0 16 3 26 6
23 4 -4 1 -86 -6 -184z m-398 152 c3 -14 1 -25 -3 -25 -5 0 -9 11 -9 25 0 14
2 25 4 25 2 0 6 -11 8 -25z m215 -17 c-3 -7 -5 -2 -5 12 0 14 2 19 5 13 2 -7
2 -19 0 -25z m-63 -348 c3 -30 -8 15 -24 100 -16 85 -29 173 -29 195 1 41 44
-195 53 -295z m513 298 c-3 -8 -6 -5 -6 6 -1 11 2 17 5 13 3 -3 4 -12 1 -19z
m-21 -79 c-8 -30 -35 -126 -60 -214 -25 -88 -50 -180 -56 -204 -6 -23 -13 -41
-16 -39 -2 3 10 58 27 124 17 65 32 126 33 134 1 8 5 22 9 30 7 16 38 119 57
188 6 24 13 42 16 39 2 -2 -2 -28 -10 -58z m-160 -106 c-10 -65 -24 -152 -32
-194 -8 -42 -15 -89 -15 -105 -2 -25 -2 -26 -6 -5 -4 21 5 91 43 324 8 48 14
92 14 99 0 6 3 8 6 5 4 -4 -1 -60 -10 -124z m100 75 c-9 -54 -12 -70 -31 -143
-15 -59 -25 -106 -30 -135 -1 -8 -7 -26 -14 -40 -10 -23 -11 -21 -6 15 8 56
77 345 83 345 3 0 2 -19 -2 -42z m-517 -133 c-1 -11 -7 3 -15 30 -7 28 -13 59
-13 70 0 11 7 -2 14 -30 8 -27 14 -59 14 -70z m8 -47 c-3 -8 -6 -5 -6 6 -1 11
2 17 5 13 3 -3 4 -12 1 -19z m90 -110 c-3 -8 -6 -5 -6 6 -1 11 2 17 5 13 3 -3
4 -12 1 -19z m-60 -20 c-3 -8 -6 -5 -6 6 -1 11 2 17 5 13 3 -3 4 -12 1 -19z
m390 -60 c-3 -8 -6 -5 -6 6 -1 11 2 17 5 13 3 -3 4 -12 1 -19z m-310 -25 c-3
-10 -5 -4 -5 12 0 17 2 24 5 18 2 -7 2 -21 0 -30z m285 -95 c-11 -51 -24 -108
-27 -126 -4 -18 -9 -31 -12 -29 -2 3 5 52 17 109 32 148 32 149 38 144 2 -3
-5 -47 -16 -98z m-45 45 c-3 -10 -5 -4 -5 12 0 17 2 24 5 18 2 -7 2 -21 0 -30z
m-230 -20 c-3 -10 -5 -4 -5 12 0 17 2 24 5 18 2 -7 2 -21 0 -30z m310 5 c-3
-8 -6 -5 -6 6 -1 11 2 17 5 13 3 -3 4 -12 1 -19z m-90 -45 c-3 -10 -5 -4 -5
12 0 17 2 24 5 18 2 -7 2 -21 0 -30z m-60 -40 c-2 -16 -4 -5 -4 22 0 28 2 40
4 28 2 -13 2 -35 0 -50z m-140 -30 c-3 -10 -5 -4 -5 12 0 17 2 24 5 18 2 -7 2
-21 0 -30z m50 5 c-3 -7 -5 -2 -5 12 0 14 2 19 5 13 2 -7 2 -19 0 -25z m140
10 c-3 -8 -6 -5 -6 6 -1 11 2 17 5 13 3 -3 4 -12 1 -19z m-12 -93 c-4 -37 -9
-65 -11 -62 -3 2 -2 34 2 71 4 37 9 64 12 62 2 -3 1 -35 -3 -71z m-165 34 c0
-6 -4 -7 -10 -4 -5 3 -10 11 -10 16 0 6 5 7 10 4 6 -3 10 -11 10 -16z m-3 -51
c-3 -8 -6 -5 -6 6 -1 11 2 17 5 13 3 -3 4 -12 1 -19z m217 -13 c-4 -8 -8 -15
-10 -15 -2 0 -4 7 -4 15 0 8 4 15 10 15 5 0 7 -7 4 -15z m-27 -27 c-3 -8 -6
-5 -6 6 -1 11 2 17 5 13 3 -3 4 -12 1 -19z"/>
<path d="M2614 3505 c-17 -26 -14 -42 5 -30 6 3 15 15 21 25 16 30 -7 34 -26
5z"/>
<path d="M1960 3445 l0 -77 28 7 c45 11 66 38 58 78 -7 40 -19 52 -59 62 l-27
7 0 -77z"/>
<path d="M1335 3398 c-11 -16 -12 -24 -4 -27 12 -4 39 25 39 41 0 16 -19 8
-35 -14z"/>
<path d="M1890 3120 c0 -12 -7 -20 -16 -20 -21 0 -14 -34 8 -38 21 -4 41 32
33 58 -8 26 -25 26 -25 0z"/>
<path d="M2100 3151 c0 -6 5 -13 10 -16 6 -3 10 1 10 9 0 9 -4 16 -10 16 -5 0
-10 -4 -10 -9z"/>
<path d="M1260 3029 c0 -5 5 -7 10 -4 6 3 10 8 10 11 0 2 -4 4 -10 4 -5 0 -10
-5 -10 -11z"/>
<path d="M2146 2878 c-8 -42 6 -55 38 -34 31 20 33 41 7 56 -31 16 -38 12 -45
-22z"/>
<path d="M1968 2883 c-39 -45 -28 -123 16 -123 30 0 56 34 56 73 0 60 -39 87
-72 50z"/>
<path d="M1327 2784 c-10 -10 -9 -52 2 -58 13 -8 33 20 29 40 -3 19 -20 28
-31 18z"/>
<path d="M2205 2517 c-8 -41 -4 -70 10 -71 13 -1 19 84 6 97 -6 6 -12 -2 -16
-26z"/>
<path d="M2481 2544 c0 -11 3 -14 6 -6 3 7 2 16 -1 19 -3 4 -6 -2 -5 -13z"/>
<path d="M2348 2528 c-9 -25 -3 -81 9 -85 16 -6 26 31 18 67 -7 31 -20 39 -27
18z"/>
<path d="M1480 2458 c0 -27 5 -48 10 -48 13 0 13 60 0 80 -7 11 -10 2 -10 -32z"/>
<path d="M1371 2494 c0 -11 3 -14 6 -6 3 7 2 16 -1 19 -3 4 -6 -2 -5 -13z"/>
</g>
</svg>
